
        <svg xmlns="http://www.w3.org/2000/svg" xmlns:xlink="http://www.w3.org/1999/xlink" version="1.1" width="3162.2002820874472" 
        height="835.0489218031255" viewBox="0 0 3162.2002820874472 835.0489218031255">
			
			<g transform="scale(8.110014104372354) translate(10, 10)">
				<defs id="SvgjsDefs2916"></defs><g id="SvgjsG2917" featureKey="symbolFeature-0" transform="matrix(-1.0407330877844632,0,0,1.0407330877844632,90.25029332778232,-10.646699011625259)" fill="#a34308"><g xmlns="http://www.w3.org/2000/svg"><path fill-rule="evenodd" clip-rule="evenodd" d="M80.11,49.695c0.003,5.951,1.481,10.771,3.303,10.771   c1.823,0,3.302-4.824,3.305-10.768c-0.003-5.951-1.479-10.773-3.303-10.773C81.591,38.926,80.107,43.748,80.11,49.695z"></path><path fill-rule="evenodd" clip-rule="evenodd" d="M39.138,14.154c-15.075,6.26-25.529,19.93-25.529,35.779   c-0.004,15.852,10.454,29.52,25.536,35.777C30.504,78.232,24.764,65,24.764,49.934S30.508,21.637,39.138,14.154z"></path><path fill-rule="evenodd" clip-rule="evenodd" d="M49.349,10.23c-7.066,0-12.803,17.854-12.803,39.857   c0,22.016,5.736,39.859,12.808,39.861c3.491-0.002,6.66-4.367,8.969-11.438c1.954,4.756,4.414,7.598,7.084,7.598   c6.367,0.002,11.532-16.066,11.527-35.883c0.005-19.816-5.156-35.887-11.521-35.879c-2.651,0-5.093,2.797-7.041,7.484   C56.057,14.668,52.871,10.234,49.349,10.23z M75.225,50.227c0.005,11.121-2.764,20.143-6.174,20.143   c-3.412,0-6.176-9.023-6.176-20.139c0-11.127,2.764-20.146,6.176-20.15C72.465,30.084,75.229,39.102,75.225,50.227z M57.792,23.318   c-2.395,6.576-3.907,16.191-3.907,26.908c-0.001,10.623,1.484,20.166,3.841,26.736c-1.15,1.559-2.418,2.424-3.748,2.424   c-5.202-0.004-9.414-13.117-9.414-29.299c0-16.174,4.212-29.293,9.407-29.293C55.333,20.797,56.626,21.701,57.792,23.318z"></path></g></g><g id="SvgjsG2918" featureKey="nameFeature-0" transform="matrix(1.2104563979015155,0,0,1.2104563979015155,94.13226608741212,12.401242008603898)" fill="#20596c"><path d="M9.3164 8.594000000000001 l0 -0.019531 c4.3164 0 8.3984 1.543 11.484 4.6289 c5.625 5.625 5.625 16.582 0 22.188 c-3.0859 3.0664 -7.168 4.6094 -11.484 4.6094 l-7.7734 0 l0 -31.406 l7.7734 0 z M9.3359 33.6914 l0.019531 0 c2.5781 0 4.9609 -0.72266 6.7969 -2.5586 s2.5586 -4.2578 2.5586 -6.8555 c0 -2.5781 -0.72266 -5 -2.5781 -6.8555 c-1.8359 -1.8555 -4.2578 -2.5781 -6.8359 -2.5781 l-1.4453 0 l0 18.848 l1.4844 0 z M27.36328125 8.515999999999998 l18.887 0 l0 6.2891 l-12.578 0 l0 6.3086 l9.4336 0 l0 6.2891 l-9.4336 0 l0 6.2891 l12.578 0 l0 6.3086 l-12.578 0 l-6.3086 0 l0 -31.484 z M49.1796875 40 l-0.019531 -31.523 l10.234 0 c3.0273 0 6.0156 1.0547 8.1836 3.2227 s3.0469 4.1992 3.0469 7.2266 l0 0.97656 c0 2.3438 -0.66406 4.0625 -1.9922 5.9375 s-2.4414 2.4219 -4.5117 3.2031 l7.1094 10.957 l-7.6953 0 l-8.0469 -12.305 l0 12.305 l-6.3086 0 z M55.4687875 23.633 l4.5117 0.019531 c1.3086 0 1.9727 -0.33203 2.8906 -1.25 s1.25 -1.9727 1.25 -3.2813 c0 -1.2891 -0.33203 -2.1484 -1.25 -3.0859 s-2.5586 -1.2695 -3.8672 -1.2695 l-3.5352 0 l0 8.8672 z M74.16015625 7.93 l15.352 21.055 l15.352 -21.055 l0 32.07 l-6.3086 0 l0 -12.988 l-9.043 12.48 l-9.043 -12.48 l0 12.988 l-6.3086 0 l0 -32.07 z M118.69178125 29.59 l5.5664 0 l-2.7734 -6.543 z M116.11328125 35.1562 l-0.039063 -0.019531 c-0.70313 1.6016 -1.4258 3.1836 -2.1484 4.7852 l-6.7773 0 l14.277 -31.992 l14.316 31.992 l-6.7969 0 c-0.70313 -1.582 -1.4063 -3.1836 -2.1094 -4.7656 l-10.723 0 z M138.14453125 8.515999999999998 l6.3086 0 l0 25.176 l12.578 0 l0 6.3086 l-18.887 0 l0 -31.484 z M159.375 8.515999999999998 l18.887 0 l0 6.2891 l-12.578 0 l0 6.3086 l9.4336 0 l0 6.2891 l-9.4336 0 l0 6.2891 l12.578 0 l0 6.3086 l-12.578 0 l-6.3086 0 l0 -31.484 z M181.19140625 40 l-0.019531 -31.523 l10.234 0 c3.0273 0 6.0156 1.0547 8.1836 3.2227 s3.0469 4.1992 3.0469 7.2266 l0 0.97656 c0 2.3438 -0.66406 4.0625 -1.9922 5.9375 s-2.4414 2.4219 -4.5117 3.2031 l7.1094 10.957 l-7.6953 0 l-8.0469 -12.305 l0 12.305 l-6.3086 0 z M187.48050625 23.633 l4.5117 0.019531 c1.3086 0 1.9727 -0.33203 2.8906 -1.25 s1.25 -1.9727 1.25 -3.2813 c0 -1.2891 -0.33203 -2.1484 -1.25 -3.0859 s-2.5586 -1.2695 -3.8672 -1.2695 l-3.5352 0 l0 8.8672 z M213.652375 8.515999999999998 l6.3086 0 l7.8711 0 l0 6.2891 l-7.8711 0 l0 25.195 l-6.3086 0 l0 -25.195 l-7.8711 0 l0 -6.2891 l7.8711 0 z"></path></g>
			</g>
		</svg>
	